<svg width="180" height="52" viewBox="0 0 180 52" fill="none" xmlns="http://www.w3.org/2000/svg">
    <path d="M173.333 52H6.66667C3.00167 52 0 49.0734 0 45.5V6.5C0 2.92663 3.00167 2.74817e-06 6.66667 2.74817e-06H173.333C176.998 2.74817e-06 180 2.92663 180 6.5V45.5C180 49.0734 176.998 52 173.333 52Z"
          fill="black"/>
    <path d="M173.333 1.04162C176.42 1.04162 178.932 3.4905 178.932 6.5V45.5C178.932 48.5095 176.42 50.9584 173.333 50.9584H6.66667C3.58 50.9584 1.06833 48.5095 1.06833 45.5V6.5C1.06833 3.4905 3.58 1.04162 6.66667 1.04162H173.333ZM173.333 2.74817e-06H6.66667C3.00167 2.74817e-06 0 2.92663 0 6.5V45.5C0 49.0734 3.00167 52 6.66667 52H173.333C176.998 52 180 49.0734 180 45.5V6.5C180 2.92663 176.998 2.74817e-06 173.333 2.74817e-06Z"
          fill="#A6A6A6"/>
    <path d="M90.8466 21.9775C87.715 21.9775 85.1566 24.3013 85.1566 27.5074C85.1566 30.6875 87.715 33.0356 90.8466 33.0356C93.985 33.0356 96.5433 30.6875 96.5433 27.5074C96.5433 24.3013 93.985 21.9775 90.8466 21.9775ZM90.8466 30.8581C89.1283 30.8581 87.65 29.4753 87.65 27.5074C87.65 25.5135 89.1283 24.155 90.8466 24.155C92.565 24.155 94.05 25.5135 94.05 27.5074C94.05 29.4753 92.565 30.8581 90.8466 30.8581ZM78.4316 21.9775C75.2933 21.9775 72.7416 24.3013 72.7416 27.5074C72.7416 30.6875 75.2933 33.0356 78.4316 33.0356C81.5683 33.0356 84.1216 30.6875 84.1216 27.5074C84.1216 24.3013 81.5683 21.9775 78.4316 21.9775ZM78.4316 30.8581C76.7116 30.8581 75.2283 29.4753 75.2283 27.5074C75.2283 25.5135 76.7116 24.155 78.4316 24.155C80.15 24.155 81.6283 25.5135 81.6283 27.5074C81.6283 29.4753 80.15 30.8581 78.4316 30.8581ZM63.6583 23.6724V26.0221H69.4133C69.245 27.3351 68.795 28.3004 68.105 28.9731C67.265 29.7856 65.9566 30.6875 63.6583 30.6875C60.1166 30.6875 57.3433 27.9006 57.3433 24.4475C57.3433 20.9944 60.1166 18.2075 63.6583 18.2075C65.5733 18.2075 66.9666 18.9371 67.995 19.8829L69.6933 18.227C68.255 16.888 66.3416 15.8594 63.6583 15.8594C58.8016 15.8594 54.72 19.7123 54.72 24.4475C54.72 29.1828 58.8016 33.0356 63.6583 33.0356C66.2833 33.0356 68.255 32.1971 69.805 30.6241C71.3933 29.0755 71.8883 26.898 71.8883 25.1398C71.8883 24.5938 71.8416 24.0916 71.7583 23.6724H63.6583ZM124.068 25.494C123.6 24.2574 122.155 21.9775 119.212 21.9775C116.295 21.9775 113.867 24.2184 113.867 27.5074C113.867 30.6046 116.27 33.0356 119.492 33.0356C122.097 33.0356 123.6 31.487 124.218 30.5851L122.285 29.329C121.64 30.2488 120.762 30.8581 119.492 30.8581C118.23 30.8581 117.325 30.2943 116.745 29.1828L124.33 26.1229L124.068 25.494ZM116.335 27.3351C116.27 25.2031 118.033 24.1111 119.297 24.1111C120.287 24.1111 121.127 24.5938 121.407 25.2844L116.335 27.3351ZM110.17 32.6993H112.663V16.4493H110.17V32.6993ZM106.087 23.2093H106.003C105.443 22.5625 104.375 21.9775 103.022 21.9775C100.182 21.9775 97.585 24.4085 97.585 27.5253C97.585 30.6241 100.182 33.0356 103.022 33.0356C104.375 33.0356 105.443 32.4458 106.003 31.7795H106.087V32.5725C106.087 34.6866 104.928 35.8225 103.06 35.8225C101.537 35.8225 100.592 34.75 100.202 33.8481L98.0333 34.7305C98.6583 36.1963 100.313 38 103.06 38C105.983 38 108.45 36.323 108.45 32.2426V22.3139H106.087V23.2093ZM103.235 30.8581C101.517 30.8581 100.078 29.4558 100.078 27.5253C100.078 25.5769 101.517 24.155 103.235 24.155C104.928 24.155 106.263 25.5769 106.263 27.5253C106.263 29.4558 104.928 30.8581 103.235 30.8581ZM135.742 16.4493H129.778V32.6993H132.265V26.5421H135.742C138.503 26.5421 141.212 24.5938 141.212 21.4949C141.212 18.3976 138.497 16.4493 135.742 16.4493ZM135.807 24.2818H132.265V18.7096H135.807C137.663 18.7096 138.723 20.2128 138.723 21.4949C138.723 22.7526 137.663 24.2818 135.807 24.2818ZM151.178 21.9466C149.382 21.9466 147.513 22.7201 146.745 24.4345L148.952 25.3364C149.427 24.4345 150.3 24.142 151.223 24.142C152.513 24.142 153.822 24.8976 153.842 26.2318V26.4024C153.392 26.1489 152.428 25.7735 151.243 25.7735C148.867 25.7735 146.445 27.0491 146.445 29.4298C146.445 31.6073 148.392 33.0096 150.58 33.0096C152.253 33.0096 153.177 32.2735 153.757 31.4171H153.842V32.6732H156.243V26.4398C156.243 23.5586 154.037 21.9466 151.178 21.9466ZM150.878 30.8516C150.065 30.8516 148.932 30.4584 148.932 29.4753C148.932 28.2175 150.345 27.7349 151.568 27.7349C152.663 27.7349 153.177 27.9705 153.842 28.2809C153.647 29.7856 152.318 30.8516 150.878 30.8516ZM164.993 22.3025L162.135 29.3469H162.05L159.095 22.3025H156.413L160.853 32.1468L158.32 37.6246H160.918L167.76 22.3025H164.993ZM142.578 32.6993H145.072V16.4493H142.578V32.6993Z"
          fill="white"/>
    <path d="M13.9134 9.80044C13.5217 10.2002 13.295 10.8226 13.295 11.6286V40.3781C13.295 41.1841 13.5217 41.8064 13.9134 42.2062L14.01 42.2939L30.5334 26.1902V25.8099L14.01 9.7062L13.9134 9.80044Z"
          fill="url(#paint0_linear)"/>
    <path d="M36.035 31.5608L30.5333 26.1902V25.8099L36.0417 20.4393L36.165 20.5092L42.6883 24.128C44.55 25.155 44.55 26.845 42.6883 27.8785L36.165 31.4909L36.035 31.5608Z"
          fill="url(#paint1_linear)"/>
    <path d="M36.165 31.491L30.5333 26.0001L13.9133 42.2062C14.5317 42.84 15.54 42.9163 16.6867 42.2826L36.165 31.491Z"
          fill="url(#paint2_linear)"/>
    <path d="M36.165 20.5091L16.6867 9.71751C15.54 9.09025 14.5317 9.16663 13.9133 9.80038L30.5333 26L36.165 20.5091Z"
          fill="url(#paint3_linear)"/>
    <defs>
        <linearGradient id="paint0_linear" x1="29.0663" y1="40.6775" x2="7.25617" y2="18.3081"
                        gradientUnits="userSpaceOnUse">
            <stop stop-color="#00A0FF"/>
            <stop offset="0.0066" stop-color="#00A1FF"/>
            <stop offset="0.2601" stop-color="#00BEFF"/>
            <stop offset="0.5122" stop-color="#00D2FF"/>
            <stop offset="0.7604" stop-color="#00DFFF"/>
            <stop offset="1" stop-color="#00E3FF"/>
        </linearGradient>
        <linearGradient id="paint1_linear" x1="45.1125" y1="25.9982" x2="12.85" y2="25.9982"
                        gradientUnits="userSpaceOnUse">
            <stop stop-color="#FFE000"/>
            <stop offset="0.4087" stop-color="#FFBD00"/>
            <stop offset="0.7754" stop-color="#FFA500"/>
            <stop offset="1" stop-color="#FF9C00"/>
        </linearGradient>
        <linearGradient id="paint2_linear" x1="33.1027" y1="23.0152" x2="3.52635" y2="-7.31951"
                        gradientUnits="userSpaceOnUse">
            <stop stop-color="#FF3A44"/>
            <stop offset="1" stop-color="#C31162"/>
        </linearGradient>
        <linearGradient id="paint3_linear" x1="9.72973" y1="51.7709" x2="22.9369" y2="38.2253"
                        gradientUnits="userSpaceOnUse">
            <stop stop-color="#32A071"/>
            <stop offset="0.0685" stop-color="#2DA771"/>
            <stop offset="0.4762" stop-color="#15CF74"/>
            <stop offset="0.8009" stop-color="#06E775"/>
            <stop offset="1" stop-color="#00F076"/>
        </linearGradient>
    </defs>
</svg>
