<svg width="32" height="32" viewBox="0 0 32 32" fill="none" xmlns="http://www.w3.org/2000/svg">
<path fill-rule="evenodd" clip-rule="evenodd" d="M16 0C7.16344 0 0 7.16344 0 16C0 24.8366 7.16344 32 16 32C24.8366 32 32 24.8366 32 16C32 7.16344 24.8366 0 16 0ZM12.4821 7.51823C13.3923 7.47681 13.6831 7.46667 16.0007 7.46667H15.998C18.3163 7.46667 18.606 7.47681 19.5163 7.51823C20.4247 7.55983 21.0452 7.70365 21.5892 7.91468C22.151 8.13246 22.6256 8.42402 23.1003 8.89869C23.575 9.373 23.8665 9.8491 24.0852 10.4103C24.295 10.9529 24.439 11.573 24.4817 12.4815C24.5225 13.3917 24.5332 13.6826 24.5332 16.0001C24.5332 18.3176 24.5225 18.6078 24.4817 19.518C24.439 20.4261 24.295 21.0464 24.0852 21.5891C23.8665 22.1502 23.575 22.6263 23.1003 23.1006C22.6262 23.5753 22.1508 23.8676 21.5897 24.0855C21.0468 24.2965 20.426 24.4404 19.5175 24.482C18.6073 24.5234 18.3173 24.5335 15.9996 24.5335C13.6823 24.5335 13.3916 24.5234 12.4814 24.482C11.5731 24.4404 10.9528 24.2965 10.4099 24.0855C9.84897 23.8676 9.37288 23.5753 8.89874 23.1006C8.42425 22.6263 8.13269 22.1502 7.91455 21.589C7.7037 21.0464 7.55988 20.4263 7.5181 19.5178C7.47686 18.6076 7.46655 18.3176 7.46655 16.0001C7.46655 13.6826 7.47721 13.3915 7.51792 12.4813C7.55881 11.5732 7.70282 10.9529 7.91437 10.4102C8.13304 9.8491 8.4246 9.373 8.89927 8.89869C9.37359 8.42419 9.84968 8.13263 10.4109 7.91468C10.9535 7.70365 11.5736 7.55983 12.4821 7.51823Z" fill="black"/>
<path fill-rule="evenodd" clip-rule="evenodd" d="M15.2354 9.00457C15.384 9.00434 15.5439 9.00441 15.7165 9.00449L16.0009 9.00457C18.2793 9.00457 18.5493 9.01275 19.4491 9.05364C20.2811 9.09169 20.7327 9.23071 21.0335 9.34751C21.4317 9.50218 21.7156 9.68707 22.0141 9.98574C22.3128 10.2844 22.4977 10.5689 22.6527 10.9671C22.7695 11.2675 22.9087 11.7191 22.9466 12.5511C22.9874 13.4507 22.9963 13.7209 22.9963 15.9982C22.9963 18.2756 22.9874 18.5458 22.9466 19.4454C22.9085 20.2774 22.7695 20.729 22.6527 21.0294C22.498 21.4276 22.3128 21.7112 22.0141 22.0097C21.7154 22.3084 21.4319 22.4932 21.0335 22.6479C20.733 22.7653 20.2811 22.9039 19.4491 22.942C18.5495 22.9829 18.2793 22.9917 16.0009 22.9917C13.7223 22.9917 13.4522 22.9829 12.5527 22.942C11.7207 22.9036 11.2691 22.7645 10.9681 22.6477C10.5699 22.4931 10.2854 22.3082 9.98677 22.0095C9.6881 21.7108 9.50321 21.4271 9.34819 21.0287C9.23138 20.7283 9.09218 20.2767 9.05432 19.4447C9.01343 18.5451 9.00525 18.2749 9.00525 15.9961C9.00525 13.7173 9.01343 13.4485 9.05432 12.549C9.09236 11.717 9.23138 11.2654 9.34819 10.9646C9.50285 10.5664 9.6881 10.2819 9.98677 9.98325C10.2854 9.68458 10.5699 9.49969 10.9681 9.34467C11.2689 9.22733 11.7207 9.08866 12.5527 9.05044C13.3399 9.01489 13.6449 9.00422 15.2354 9.00244V9.00457ZM20.556 10.4215C19.9906 10.4215 19.532 10.8796 19.532 11.4451C19.532 12.0105 19.9906 12.4691 20.556 12.4691C21.1213 12.4691 21.58 12.0105 21.58 11.4451C21.58 10.8798 21.1213 10.4211 20.556 10.4211V10.4215ZM11.6187 16.0002C11.6187 13.5801 13.5808 11.618 16.0008 11.6179C18.4209 11.6179 20.3825 13.5801 20.3825 16.0002C20.3825 18.4203 18.4211 20.3816 16.001 20.3816C13.5809 20.3816 11.6187 18.4203 11.6187 16.0002Z" fill="black"/>
<path d="M16.0007 13.1555C17.5716 13.1555 18.8452 14.429 18.8452 16C18.8452 17.5709 17.5716 18.8445 16.0007 18.8445C14.4297 18.8445 13.1562 17.5709 13.1562 16C13.1562 14.429 14.4297 13.1555 16.0007 13.1555Z" fill="black"/>
</svg>
