<svg width="66" height="22" viewBox="0 0 66 22" fill="none" xmlns="http://www.w3.org/2000/svg">
<path fill-rule="evenodd" clip-rule="evenodd" d="M16.349 21.3168H10.6896L6.4458 4.65007C6.24437 3.8834 5.81667 3.20562 5.18754 2.88617C3.61748 2.08339 1.88738 1.4445 0 1.12228V0.48061H9.11683C10.3751 0.48061 11.3188 1.4445 11.4761 2.56395L13.678 14.5862L19.3346 0.48061H24.8367L16.349 21.3168ZM27.9824 21.3168H22.6376L27.0387 0.48061H32.3835L27.9824 21.3168ZM39.2984 6.2528C39.4557 5.13057 40.3994 4.4889 41.5004 4.4889C43.2305 4.32779 45.1151 4.65002 46.6879 5.45002L47.6316 0.963892C46.0588 0.322223 44.3287 0 42.7586 0C37.5711 0 33.7963 2.88612 33.7963 6.89169C33.7963 9.93892 36.4701 11.5389 38.3575 12.5028C40.3994 13.4639 41.1858 14.1056 41.0285 15.0667C41.0285 16.5084 39.4557 17.1501 37.8856 17.1501C35.9983 17.1501 34.1109 16.6695 32.3835 15.8667L31.4398 20.3556C33.3272 21.1556 35.3691 21.4778 37.2565 21.4778C43.0732 21.6362 46.6879 18.7528 46.6879 14.425C46.6879 8.97503 39.2984 8.65558 39.2984 6.2528ZM65.3934 21.3168L61.1496 0.48061H56.5912C55.6475 0.48061 54.7038 1.12228 54.3892 2.08339L46.5306 21.3168H52.0327L53.131 18.2723H59.8913L60.5204 21.3168H65.3934ZM57.3776 6.09175L58.9476 13.9446H54.5465L57.3776 6.09175Z" fill="#172B85"/>
</svg>
