<svg width="40" height="40" viewBox="0 0 40 40" fill="none" xmlns="http://www.w3.org/2000/svg">
<path d="M8.33301 35V8.33333C8.33301 7.44928 8.6842 6.60143 9.30932 5.97631C9.93444 5.35119 10.7823 5 11.6663 5H28.333C29.2171 5 30.0649 5.35119 30.69 5.97631C31.3152 6.60143 31.6663 7.44928 31.6663 8.33333V35L26.6663 31.6667L23.333 35L19.9997 31.6667L16.6663 35L13.333 31.6667L8.33301 35Z" stroke="black" stroke-width="2" stroke-linecap="round" stroke-linejoin="round"/>
<path d="M25 23.3333V20C25 19.1159 24.6488 18.2681 24.0237 17.643C23.3986 17.0178 22.5507 16.6666 21.6667 16.6666H15M15 16.6666L18.3333 13.3333M15 16.6666L18.3333 20" stroke="black" stroke-width="2" stroke-linecap="round" stroke-linejoin="round"/>
</svg>
