<svg width="40" height="40" viewBox="0 0 40 40" fill="none" xmlns="http://www.w3.org/2000/svg">
<path d="M11.6663 31.6667C13.5073 31.6667 14.9997 30.1743 14.9997 28.3333C14.9997 26.4924 13.5073 25 11.6663 25C9.82539 25 8.33301 26.4924 8.33301 28.3333C8.33301 30.1743 9.82539 31.6667 11.6663 31.6667Z" stroke="black" stroke-width="2" stroke-linecap="round" stroke-linejoin="round"/>
<path d="M28.3333 31.6667C30.1743 31.6667 31.6667 30.1743 31.6667 28.3333C31.6667 26.4924 30.1743 25 28.3333 25C26.4924 25 25 26.4924 25 28.3333C25 30.1743 26.4924 31.6667 28.3333 31.6667Z" stroke="black" stroke-width="2" stroke-linecap="round" stroke-linejoin="round"/>
<path d="M8.33301 28.3333H4.99967V21.6667M3.33301 8.33334H21.6663V28.3333M14.9997 28.3333H24.9997M31.6663 28.3333H34.9997V18.3333M34.9997 18.3333H21.6663M34.9997 18.3333L29.9997 10H21.6663" stroke="black" stroke-width="2" stroke-linecap="round" stroke-linejoin="round"/>
<path d="M5 15H11.6667" stroke="black" stroke-width="2" stroke-linecap="round" stroke-linejoin="round"/>
</svg>
