<?xml version="1.0" standalone="no"?>
<!DOCTYPE svg PUBLIC "-//W3C//DTD SVG 20010904//EN"
 "http://www.w3.org/TR/2001/REC-SVG-20010904/DTD/svg10.dtd">
<svg version="1.0" xmlns="http://www.w3.org/2000/svg"
 width="640.000000pt" height="640.000000pt" viewBox="0 0 640.000000 640.000000"
 preserveAspectRatio="xMidYMid meet">
<metadata>
Created by potrace 1.16, written by Peter Selinger 2001-2019
</metadata>
<g transform="translate(0.000000,640.000000) scale(0.100000,-0.100000)"
fill="#000000" stroke="none">
<path d="M0 3200 l0 -3200 3200 0 3200 0 0 3200 0 3200 -3200 0 -3200 0 0
-3200z m2162 2268 c35 -32 37 -36 48 -141 16 -156 33 -208 128 -388 34 -64
165 -200 253 -260 195 -136 444 -193 684 -159 39 6 86 16 105 22 97 31 170 61
219 91 29 17 65 38 80 46 56 30 219 210 266 292 25 45 45 85 45 90 0 4 6 23
14 41 26 59 44 141 55 240 14 119 15 123 56 142 42 20 59 20 91 0 34 -23 54
-65 54 -112 0 -43 -23 -182 -41 -247 -30 -109 -103 -258 -175 -356 -84 -115
-291 -282 -419 -339 -27 -12 -63 -27 -80 -35 -16 -7 -50 -18 -75 -25 -25 -6
-58 -15 -75 -20 -77 -23 -257 -33 -378 -20 -67 6 -129 16 -139 21 -9 5 -30 9
-47 9 -16 0 -32 4 -36 9 -3 5 -20 13 -37 17 -18 3 -39 10 -48 14 -145 67 -221
111 -290 166 -86 70 -250 255 -250 283 0 5 -6 16 -13 23 -24 26 -66 115 -97
208 -29 86 -32 108 -34 232 -2 76 0 141 3 145 13 18 57 42 77 42 11 1 37 -14
56 -31z m-67 -1434 c114 -27 185 -60 248 -116 23 -21 45 -38 49 -38 9 0 98
-135 98 -148 0 -5 7 -23 15 -38 8 -16 15 -46 15 -66 0 -36 -2 -38 -32 -38 -63
-1 -303 -1 -316 -1 -7 1 -18 13 -25 29 -21 47 -49 82 -66 82 -9 0 -22 5 -27
10 -6 6 -33 13 -61 16 -38 5 -60 2 -94 -13 -74 -34 -103 -67 -135 -158 -19
-56 -19 -256 2 -314 25 -74 57 -121 81 -121 7 0 13 -4 13 -9 0 -28 168 -53
208 -31 9 5 34 17 55 26 37 16 78 76 63 92 -4 4 -36 5 -71 4 -38 -2 -65 1 -69
7 -6 9 -9 139 -6 244 0 16 17 17 248 15 l247 -3 5 -300 c3 -165 3 -315 1 -333
l-3 -33 -117 3 -116 3 -3 40 c-4 53 -16 64 -44 38 -13 -12 -41 -31 -63 -43
-22 -11 -47 -25 -55 -29 -40 -22 -96 -31 -202 -31 -90 0 -128 4 -174 21 -32
11 -68 23 -79 26 -57 17 -200 153 -237 225 -66 130 -80 190 -80 347 -1 141 4
169 50 286 15 38 67 123 94 155 19 23 129 114 158 132 38 22 87 39 172 57 110
23 173 24 253 5z m1299 -36 c9 -12 16 -29 16 -36 0 -8 6 -28 14 -45 7 -18 19
-48 26 -67 7 -19 19 -48 25 -65 7 -16 27 -70 45 -120 17 -49 36 -98 41 -107 5
-10 9 -25 9 -34 0 -9 6 -28 14 -42 8 -15 27 -61 41 -102 33 -93 46 -128 79
-210 14 -36 26 -70 26 -77 0 -7 7 -29 16 -50 9 -21 20 -47 24 -58 4 -11 19
-52 34 -90 14 -39 26 -76 26 -83 0 -9 -45 -12 -184 -12 -191 0 -196 1 -209 45
-3 11 -14 43 -24 70 l-19 50 -186 2 c-135 1 -189 -1 -195 -10 -8 -11 -41 -93
-57 -140 -5 -16 -21 -17 -188 -15 l-183 3 2 30 c1 17 7 39 13 50 11 22 49 125
81 220 11 33 24 69 29 80 5 11 16 43 26 70 10 28 24 61 31 75 7 14 13 31 13
38 0 7 4 20 9 30 5 9 21 51 36 92 14 41 33 92 41 113 8 20 20 54 28 75 8 20
26 71 41 112 31 87 49 135 72 190 l16 40 178 0 c172 0 178 -1 193 -22z m1246
8 c188 -37 285 -123 320 -286 21 -102 -29 -250 -107 -317 -14 -13 -30 -23 -35
-23 -18 0 -5 -21 47 -75 34 -34 55 -65 55 -78 0 -13 5 -28 11 -34 16 -16 39
-140 39 -209 0 -33 7 -84 15 -112 9 -29 13 -57 10 -62 -4 -6 -79 -10 -184 -10
l-178 0 -13 43 c-7 23 -16 85 -21 137 -9 116 -16 147 -43 183 -39 52 -112 72
-231 61 l-75 -7 -2 -206 -3 -206 -182 -3 -183 -2 0 112 c-2 479 2 1093 6 1100
3 4 157 8 342 8 252 0 356 -4 412 -14z m-2735 -1270 c237 -4 269 -9 382 -65
116 -59 226 -189 261 -310 35 -123 38 -331 6 -445 -18 -60 -72 -176 -83 -176
-4 0 -13 -10 -20 -23 -17 -31 -103 -97 -171 -129 -115 -54 -148 -58 -512 -58
-260 0 -337 3 -340 13 -7 17 -2 1182 5 1193 3 5 61 8 129 7 67 -2 222 -4 343
-7z m1794 0 c8 -9 11 -59 9 -152 l-3 -139 -304 -3 c-204 -1 -309 -6 -318 -13
-13 -12 -18 -84 -7 -113 5 -14 40 -16 283 -16 161 0 281 -4 286 -9 6 -6 9 -69
7 -145 l-3 -136 -287 -2 -287 -3 -3 -60 c-2 -32 -1 -69 3 -82 l5 -23 323 -2
322 -3 3 -153 3 -152 -513 2 -513 3 -3 589 c-1 424 1 593 9 602 9 11 102 14
488 17 262 1 479 3 482 5 4 1 12 -4 18 -12z m1001 -21 c70 -24 121 -56 165
-102 100 -106 115 -267 38 -408 -18 -33 -79 -95 -94 -95 -5 0 -9 -9 -9 -20 0
-11 6 -20 13 -20 53 0 137 -184 137 -300 0 -30 7 -91 15 -135 9 -43 13 -85 11
-92 -4 -10 -47 -13 -180 -13 -204 0 -190 -8 -199 115 -15 185 -40 254 -107
288 -28 14 -56 17 -145 15 l-110 -3 -3 -208 -2 -207 -183 2 -182 3 -3 594 c-1
351 2 598 7 605 7 8 117 9 393 5 340 -5 389 -7 438 -24z"/>
<path d="M3193 3553 c-6 -16 -17 -53 -26 -83 -8 -30 -27 -93 -42 -138 -15 -46
-24 -86 -21 -89 3 -3 48 -7 101 -8 l95 -2 0 25 c0 27 -14 76 -36 130 -8 18
-14 44 -14 57 0 13 -4 26 -9 29 -5 4 -12 29 -16 56 -8 56 -18 63 -32 23z"/>
<path d="M4262 3721 c-10 -6 -12 -37 -10 -117 l3 -109 129 -3 c143 -3 161 3
196 61 24 38 25 64 5 103 -27 54 -66 69 -195 71 -64 1 -122 -2 -128 -6z"/>
<path d="M1800 2134 l0 -297 118 5 c129 5 160 16 217 73 51 51 69 120 62 239
-3 61 -11 113 -21 131 -49 96 -147 145 -293 145 l-83 0 0 -296z"/>
<path d="M4240 2445 c-5 -6 -8 -58 -7 -115 l2 -105 148 0 147 0 25 30 c44 54
23 175 -30 175 -12 0 -26 5 -32 11 -15 15 -242 18 -253 4z"/>
</g>
</svg>
