<svg width="115" height="56" viewBox="0 0 115 56" fill="none" xmlns="http://www.w3.org/2000/svg">
<rect width="115" height="56" rx="8" fill="white"/>
<path d="M64.4985 40.0552H50.6641V15.3578H64.4985V40.0552Z" fill="#FF5F00"/>
<path d="M51.5423 27.707C51.5423 22.6971 53.9036 18.2343 57.5809 15.3583C54.8918 13.2553 51.498 12 47.8097 12C39.078 12 32 19.0322 32 27.707C32 36.3819 39.078 43.4141 47.8097 43.4141C51.498 43.4141 54.8918 42.1588 57.5809 40.0558C53.9036 37.1798 51.5423 32.717 51.5423 27.707Z" fill="#EB001B"/>
<path d="M83.1629 27.707C83.1629 36.3819 76.0849 43.4141 67.3532 43.4141C63.6649 43.4141 60.2711 42.1588 57.5811 40.0558C61.2593 37.1798 63.6207 32.717 63.6207 27.707C63.6207 22.6971 61.2593 18.2343 57.5811 15.3583C60.2711 13.2553 63.6649 12 67.3532 12C76.0849 12 83.1629 19.0322 83.1629 27.707Z" fill="#F79E1B"/>
</svg>
