<svg width="115" height="56" viewBox="0 0 115 56" fill="none" xmlns="http://www.w3.org/2000/svg">
<rect width="115" height="56" rx="8" fill="white"/>
<path fill-rule="evenodd" clip-rule="evenodd" d="M41.349 38.3168H35.6896L31.4458 21.6501C31.2444 20.8834 30.8167 20.2056 30.1875 19.8862C28.6175 19.0834 26.8874 18.4445 25 18.1223V17.4806H34.1168C35.3751 17.4806 36.3188 18.4445 36.4761 19.564L38.678 31.5862L44.3346 17.4806H49.8367L41.349 38.3168ZM52.9824 38.3168H47.6376L52.0387 17.4806H57.3835L52.9824 38.3168ZM64.2984 23.2528C64.4557 22.1306 65.3994 21.4889 66.5004 21.4889C68.2305 21.3278 70.1151 21.65 71.6879 22.45L72.6316 17.9639C71.0588 17.3222 69.3287 17 67.7586 17C62.5711 17 58.7963 19.8861 58.7963 23.8917C58.7963 26.9389 61.4701 28.5389 63.3575 29.5028C65.3994 30.4639 66.1858 31.1056 66.0285 32.0667C66.0285 33.5084 64.4557 34.1501 62.8856 34.1501C60.9983 34.1501 59.1109 33.6695 57.3835 32.8667L56.4398 37.3556C58.3272 38.1556 60.3691 38.4778 62.2565 38.4778C68.0732 38.6362 71.6879 35.7528 71.6879 31.425C71.6879 25.975 64.2984 25.6556 64.2984 23.2528ZM90.3934 38.3168L86.1496 17.4806H81.5912C80.6475 17.4806 79.7038 18.1223 79.3892 19.0834L71.5306 38.3168H77.0327L78.131 35.2723H84.8913L85.5204 38.3168H90.3934ZM82.3776 23.0918L83.9476 30.9446H79.5465L82.3776 23.0918Z" fill="#172B85"/>
</svg>
