<svg width="52" height="32" viewBox="0 0 52 32" fill="none" xmlns="http://www.w3.org/2000/svg">
<path d="M32.4989 28.0553H18.6646V3.35791H32.4989V28.0553Z" fill="#FF5F00"/>
<path d="M19.5423 15.707C19.5423 10.6971 21.9036 6.2343 25.5809 3.35833C22.8918 1.25527 19.498 2.86102e-05 15.8097 2.86102e-05C7.07803 2.86102e-05 0 7.03219 0 15.707C0 24.3819 7.07803 31.4141 15.8097 31.4141C19.498 31.4141 22.8918 30.1588 25.5809 28.0558C21.9036 25.1798 19.5423 20.717 19.5423 15.707Z" fill="#EB001B"/>
<path d="M51.1627 15.707C51.1627 24.3819 44.0846 31.4141 35.3529 31.4141C31.6646 31.4141 28.2709 30.1588 25.5808 28.0558C29.2591 25.1798 31.6204 20.717 31.6204 15.707C31.6204 10.6971 29.2591 6.2343 25.5808 3.35833C28.2709 1.25527 31.6646 2.86102e-05 35.3529 2.86102e-05C44.0846 2.86102e-05 51.1627 7.03219 51.1627 15.707Z" fill="#F79E1B"/>
</svg>
