<svg width="18" height="34" viewBox="0 0 18 34" fill="none" xmlns="http://www.w3.org/2000/svg">
<path d="M3.31755 0.0538051C3.67477 0.0525882 4.02772 0.13143 4.35047 0.28453C4.67322 0.437629 4.95757 0.661097 5.18262 0.938517L16.7317 15.2852C17.0834 15.713 17.2756 16.2497 17.2756 16.8035C17.2756 17.3574 17.0834 17.894 16.7317 18.3219L4.77613 32.6686C4.37026 33.1569 3.78704 33.4639 3.15477 33.5222C2.5225 33.5805 1.89296 33.3853 1.40466 32.9794C0.916353 32.5735 0.609278 31.9903 0.550984 31.358C0.492689 30.7258 0.68795 30.0962 1.09382 29.6079L11.7821 16.7916L1.45248 3.97522C1.16009 3.62425 0.974358 3.19686 0.917258 2.74363C0.86016 2.29039 0.934087 1.83029 1.13029 1.41775C1.3265 1.00522 1.63677 0.657527 2.02439 0.415808C2.41201 0.17409 2.86077 0.0484683 3.31755 0.0538051Z" fill="white"/>
</svg>
