<svg width="17" height="35" viewBox="0 0 17 35" fill="none" xmlns="http://www.w3.org/2000/svg">
<path d="M14.0689 34.4314C13.7117 34.4326 13.3588 34.3538 13.036 34.2007C12.7133 34.0476 12.4289 33.8241 12.2039 33.5467L0.654789 19.2001C0.3031 18.7722 0.11084 18.2355 0.11084 17.6817C0.11084 17.1279 0.3031 16.5912 0.654789 16.1633L12.6103 1.81668C13.0162 1.32837 13.5994 1.02129 14.2317 0.962999C14.864 0.904704 15.4935 1.09997 15.9818 1.50583C16.4701 1.91169 16.7772 2.49491 16.8355 3.12719C16.8938 3.75946 16.6985 4.38899 16.2927 4.8773L5.60439 17.6937L15.934 30.51C16.2264 30.861 16.4121 31.2884 16.4692 31.7416C16.5263 32.1948 16.4524 32.6549 16.2562 33.0675C16.06 33.48 15.7497 33.8277 15.3621 34.0694C14.9745 34.3111 14.5257 34.4368 14.0689 34.4314Z" fill="white"/>
</svg>
