<svg width="24" height="24" viewBox="0 0 24 24" fill="#CC3D3D" xmlns="http://www.w3.org/2000/svg">
<path d="M3.50005 8.49997C5.50005 3.29997 10 5.33331 12 6.99997C13.3334 5.99997 16.6 4.39997 19 5.99997C21.4 7.59997 21 11 20.5 12.5L12 21C10.5 19.6666 7.00005 16.5 5.00005 14.5C2.50005 12 3.00005 11 3.50005 8.49997Z" fill="#CC3D3D"/>
<path d="M19.5001 13.5721L12.0001 21.0001L4.50006 13.5721C4.00536 13.0907 3.6157 12.5121 3.3556 11.8727C3.09551 11.2333 2.97062 10.547 2.98879 9.85699C3.00697 9.16697 3.16782 8.48819 3.46121 7.86339C3.75461 7.23859 4.17419 6.68131 4.69354 6.22663C5.21289 5.77196 5.82076 5.42974 6.47887 5.22154C7.13697 5.01333 7.83106 4.94364 8.51743 5.01686C9.20379 5.09007 9.86756 5.30461 10.4669 5.64696C11.0663 5.98931 11.5883 6.45205 12.0001 7.00605C12.4136 6.45608 12.9362 5.99738 13.5352 5.65866C14.1341 5.31994 14.7966 5.1085 15.481 5.03757C16.1654 4.96665 16.8571 5.03775 17.5128 5.24645C18.1685 5.45514 18.7741 5.79693 19.2916 6.25042C19.8091 6.70391 20.2275 7.25934 20.5205 7.88195C20.8135 8.50456 20.9748 9.18094 20.9944 9.86876C21.0139 10.5566 20.8913 11.241 20.6342 11.8793C20.3771 12.5176 19.991 13.0959 19.5001 13.5781" stroke="#CC3D3D" stroke-width="1.5" stroke-linecap="round" stroke-linejoin="round"/>
</svg>
