<svg width="24" height="24" viewBox="0 0 24 24" fill="none" xmlns="http://www.w3.org/2000/svg">
<path d="M3.50001 8.5C5.50001 3.3 10 5.33334 12 7C13.3333 6 16.6 4.4 19 6C21.4 7.6 21 11 20.5 12.5L12 21C10.5 19.6667 7.00001 16.5 5.00001 14.5C2.50001 12 3.00001 11 3.50001 8.5Z" fill="#4853A2"/>
<path d="M19.5 13.572L12 21L4.5 13.572C4.0053 13.0906 3.61564 12.512 3.35554 11.8726C3.09545 11.2333 2.97056 10.547 2.98873 9.85693C3.00691 9.16692 3.16776 8.48814 3.46115 7.86334C3.75455 7.23854 4.17413 6.68126 4.69348 6.22658C5.21283 5.77191 5.8207 5.42969 6.47881 5.22148C7.13691 5.01327 7.831 4.94359 8.51736 5.0168C9.20373 5.09002 9.8675 5.30456 10.4669 5.64691C11.0662 5.98926 11.5882 6.452 12 7.006C12.4135 6.45602 12.9361 5.99732 13.5351 5.65861C14.1341 5.31989 14.7965 5.10845 15.4809 5.03752C16.1654 4.96659 16.8571 5.0377 17.5128 5.24639C18.1685 5.45509 18.774 5.79687 19.2915 6.25036C19.8091 6.70386 20.2274 7.25929 20.5204 7.88189C20.8134 8.5045 20.9747 9.18088 20.9943 9.86871C21.0139 10.5565 20.8913 11.241 20.6341 11.8793C20.377 12.5175 19.9909 13.0958 19.5 13.578" stroke="#4853A2" stroke-width="1.5" stroke-linecap="round" stroke-linejoin="round"/>
</svg>
