<svg width="20" height="18" viewBox="0 0 20 18" fill="none" xmlns="http://www.w3.org/2000/svg">
<path d="M17.5001 9.57199L10.0001 17L2.50006 9.57199C2.00536 9.09061 1.6157 8.51201 1.3556 7.87263C1.09551 7.23325 0.970619 6.54694 0.988794 5.85693C1.00697 5.16691 1.16782 4.48813 1.46121 3.86333C1.75461 3.23853 2.17419 2.68125 2.69354 2.22657C3.21289 1.7719 3.82076 1.42968 4.47887 1.22147C5.13697 1.01327 5.83106 0.943578 6.51743 1.0168C7.20379 1.09001 7.86756 1.30455 8.46693 1.6469C9.06631 1.98925 9.58831 2.45199 10.0001 3.00599C10.4136 2.45602 10.9362 1.99731 11.5352 1.6586C12.1341 1.31988 12.7966 1.10844 13.481 1.03751C14.1654 0.966584 14.8571 1.03769 15.5128 1.24639C16.1685 1.45508 16.7741 1.79687 17.2916 2.25036C17.8091 2.70385 18.2275 3.25928 18.5205 3.88189C18.8135 4.50449 18.9748 5.18088 18.9944 5.8687C19.0139 6.55653 18.8913 7.24099 18.6342 7.87924C18.3771 8.5175 17.991 9.09582 17.5001 9.57799" stroke="black" stroke-width="1.5" stroke-linecap="round" stroke-linejoin="round"/>
</svg>
