<svg width="24" height="24" viewBox="0 0 24 24" fill="none" xmlns="http://www.w3.org/2000/svg">
<path fill-rule="evenodd" clip-rule="evenodd" d="M13.637 4.5615L18.97 8.70567C19.62 9.2102 20 9.98649 20 10.8087V18.0021C20 18.532 19.7893 19.0403 19.4142 19.415C19.0391 19.7897 18.5304 20.0002 18 20.0002H15V14.25C15 13.5596 14.4404 13 13.75 13H10.25C9.55964 13 9 13.5596 9 14.25V20.0002H6C5.46957 20.0002 4.96086 19.7897 4.58579 19.415C4.21071 19.0403 4 18.532 4 18.0021V10.8087C3.99981 10.403 4.09242 10.0026 4.27076 9.63816C4.44909 9.27367 4.70844 8.95472 5.029 8.70567L10.363 4.5615C10.831 4.19774 11.407 4.00024 12 4.00024C12.593 4.00024 13.169 4.19774 13.637 4.5615Z" fill="#4853A2"/>
<path d="M18.97 8.70567L18.5865 9.19918L18.5868 9.19939L18.97 8.70567ZM13.637 4.5615L13.2535 5.05497L13.2535 5.05501L13.637 4.5615ZM15 20.0002H14.375C14.375 20.3454 14.6548 20.6252 15 20.6252V20.0002ZM9 20.0002V20.6252C9.34518 20.6252 9.625 20.3454 9.625 20.0002H9ZM4.58579 19.415L5.02752 18.9729L4.58579 19.415ZM4 10.8087H4.625L4.625 10.8084L4 10.8087ZM4.27076 9.63816L4.83216 9.91284L4.27076 9.63816ZM5.029 8.70567L4.64555 8.21212L4.64554 8.21213L5.029 8.70567ZM10.363 4.5615L10.7465 5.05504L10.7465 5.05497L10.363 4.5615ZM19.3535 8.21216L14.0205 4.06798L13.2535 5.05501L18.5865 9.19918L19.3535 8.21216ZM20.625 10.8087C20.625 9.7934 20.1558 8.83487 19.3532 8.21195L18.5868 9.19939C19.0842 9.58553 19.375 10.1796 19.375 10.8087H20.625ZM20.625 18.0021V10.8087H19.375V18.0021H20.625ZM19.856 19.8571C20.3483 19.3653 20.625 18.698 20.625 18.0021H19.375C19.375 18.3661 19.2303 18.7153 18.9725 18.9729L19.856 19.8571ZM18 20.6252C18.696 20.6252 19.3636 20.349 19.856 19.8571L18.9725 18.9729C18.7147 19.2304 18.3649 19.3752 18 19.3752V20.6252ZM15 20.6252H18V19.3752H15V20.6252ZM14.375 14.25V20.0002H15.625V14.25H14.375ZM13.75 13.625C14.0952 13.625 14.375 13.9048 14.375 14.25H15.625C15.625 13.2145 14.7855 12.375 13.75 12.375V13.625ZM10.25 13.625H13.75V12.375H10.25V13.625ZM9.625 14.25C9.625 13.9048 9.90482 13.625 10.25 13.625V12.375C9.21447 12.375 8.375 13.2145 8.375 14.25H9.625ZM9.625 20.0002V14.25H8.375V20.0002H9.625ZM6 20.6252H9V19.3752H6V20.6252ZM4.14405 19.8571C4.63638 20.349 5.30399 20.6252 6 20.6252V19.3752C5.63514 19.3752 5.28534 19.2304 5.02752 18.9729L4.14405 19.8571ZM3.375 18.0021C3.375 18.698 3.6517 19.3653 4.14405 19.8571L5.02752 18.9729C4.76973 18.7153 4.625 18.3661 4.625 18.0021H3.375ZM3.375 10.8087V18.0021H4.625V10.8087H3.375ZM3.70935 9.36347C3.48913 9.81355 3.37476 10.308 3.375 10.809L4.625 10.8084C4.62485 10.4981 4.6957 10.1917 4.83216 9.91284L3.70935 9.36347ZM4.64554 8.21213C4.2498 8.5196 3.92957 8.91339 3.70935 9.36347L4.83216 9.91284C4.96862 9.63395 5.16709 9.38985 5.41246 9.19921L4.64554 8.21213ZM9.97955 4.06795L4.64555 8.21212L5.41245 9.19922L10.7465 5.05504L9.97955 4.06795ZM12 3.37524C11.2682 3.37524 10.5572 3.61899 9.97945 4.06802L10.7465 5.05497C11.1048 4.77649 11.5459 4.62524 12 4.62524V3.37524ZM14.0205 4.06802C13.4428 3.61899 12.7318 3.37524 12 3.37524V4.62524C12.4541 4.62524 12.8952 4.77649 13.2535 5.05497L14.0205 4.06802Z" fill="#4853A2"/>
</svg>
